# xmcd CD database file
#
# Track frame offsets:
#	150
#	31490
#	61114
#	98299
#	132514
#	159213
#	183089
#	207837
#
# Disc length: 3425 seconds
#
# Revision: 0
# Processed by: cddbd v1.5.2PL0 Copyright (c) Steve Scherf et al.
# Submitted via: CDex 1.70beta2
#
DISCID=590d5f08
DTITLE=Future is Tomorrow - Fit to Die (Part 1)
DYEAR=2009
DGENRE=Salsa
TTITLE0=Dead
TTITLE1=Another Soul
TTITLE2=Awakening the Ghosts
TTITLE3=All for You
TTITLE4=Stories to Tell
TTITLE5=Fit to Die
TTITLE6=Save Us, Source of Mercy
TTITLE7=The Day of Retribution
EXTD=YEAR: 2009
EXTT0=
EXTT1=
EXTT2=
EXTT3=
EXTT4=
EXTT5=
EXTT6=
EXTT7=
PLAYORDER=
